<svg width="44" height="53" viewBox="0 0 44 53" fill="none" xmlns="http://www.w3.org/2000/svg">
<path d="M18.695 20.4373C18.2264 21.4376 17.0357 21.8685 16.0354 21.3999L12.5609 19.7722C11.5607 19.3035 11.1297 18.1128 11.5983 17.1126L14.1848 11.5917C14.185 11.5912 14.1856 11.591 14.1861 11.5913C14.1866 11.5915 14.1872 11.5913 14.1874 11.5908C17.2552 5.20915 24.8979 2.47505 31.3248 5.48574C37.69 8.46817 40.4884 15.974 37.6848 22.3759L37.5475 22.6804L24.2663 51.0292C23.7977 52.0294 22.6069 52.4604 21.6067 51.9918L18.1331 50.3645C17.1328 49.8958 16.7019 48.7051 17.1705 47.7049L30.4517 19.3561C31.6451 16.8087 30.5471 13.7761 28 12.5824C25.4928 11.4081 22.5175 12.4536 21.2863 14.9155C21.2858 14.9165 21.2847 14.9169 21.2837 14.9164C21.2827 14.916 21.2815 14.9164 21.2811 14.9174L18.695 20.4373Z" fill="#FF5659"/>
<mask id="mask0_6_266" style="mask-type:alpha" maskUnits="userSpaceOnUse" x="11" y="4" width="28" height="49">
<path d="M18.695 20.4373C18.2264 21.4376 17.0357 21.8685 16.0354 21.3999L12.5609 19.7722C11.5607 19.3035 11.1297 18.1128 11.5983 17.1126L14.1848 11.5917C14.185 11.5912 14.1856 11.591 14.1861 11.5913C14.1866 11.5915 14.1872 11.5913 14.1874 11.5908C17.2552 5.20915 24.8979 2.47505 31.3248 5.48574C37.69 8.46817 40.4884 15.974 37.6848 22.3759L37.5475 22.6804L24.2663 51.0292C23.7977 52.0294 22.6069 52.4604 21.6067 51.9918L18.1331 50.3645C17.1328 49.8958 16.7019 48.7051 17.1705 47.7049L30.4517 19.3561C31.6451 16.8087 30.5471 13.7761 28 12.5824C25.4928 11.4081 22.5175 12.4536 21.2863 14.9155C21.2858 14.9165 21.2847 14.9169 21.2837 14.9164C21.2827 14.916 21.2815 14.9164 21.2811 14.9174L18.695 20.4373Z" fill="#FF5659"/>
</mask>
<g mask="url(#mask0_6_266)">
<rect x="32.6363" y="46.4199" width="19.8929" height="4.64168" transform="rotate(175.103 32.6363 46.4199)" fill="white"/>
<rect x="37.4186" y="36.212" width="19.8929" height="4.64168" transform="rotate(175.103 37.4186 36.212)" fill="white"/>
<rect x="42.2009" y="26.0041" width="19.8929" height="4.64168" transform="rotate(175.103 42.2009 26.0041)" fill="white"/>
<rect x="44.9293" y="11.3171" width="19.8929" height="4.64168" transform="rotate(152.584 44.9293 11.3171)" fill="white"/>
<rect x="35.3703" y="6.10657" width="28.1882" height="4.64168" transform="rotate(152.584 35.3703 6.10657)" fill="white"/>
</g>
</svg>
