<svg width="413" height="642" viewBox="0 0 413 642" fill="none" xmlns="http://www.w3.org/2000/svg">
<path d="M202.369 7.86357C203.799 4.7663 208.201 4.76629 209.631 7.86357L217.393 24.6693C217.979 25.9384 219.185 26.8094 220.574 26.9668L239.06 29.062C242.479 29.4495 243.846 33.6871 241.297 35.9991L227.65 48.3798C226.603 49.3295 226.135 50.7612 226.419 52.1459L230.109 70.1396C230.796 73.4928 227.229 76.1044 224.24 74.4355L207.95 65.3386C206.738 64.6617 205.262 64.6617 204.05 65.3386L187.76 74.4355C184.772 76.1044 181.204 73.4928 181.891 70.1396L185.581 52.1459C185.865 50.7612 185.397 49.3295 184.35 48.3798L170.703 35.9991C168.154 33.6871 169.521 29.4495 172.94 29.062L191.426 26.9668C192.815 26.8094 194.021 25.9384 194.607 24.6693L202.369 7.86357Z" fill="#F2FD9D"/>
<rect x="233" y="565" width="59" height="60" rx="10" fill="#EEBDFF"/>
<rect x="269" y="560" width="71" height="19" rx="9.5" transform="rotate(90 269 560)" fill="#FF5659"/>
<rect x="298" y="605" width="71" height="19" rx="9.5" transform="rotate(-180 298 605)" fill="#FF5659"/>
<rect x="170.296" y="447.318" width="71.0682" height="183.705" rx="10" fill="#88745C"/>
<path d="M197.851 80.0604C201.705 73.4202 211.295 73.4201 215.149 80.0604L308.102 240.213C311.972 246.88 307.162 255.233 299.453 255.233H113.547C105.838 255.233 101.028 246.88 104.898 240.213L197.851 80.0604Z" fill="#2EB370"/>
<path d="M197.84 136.477C201.689 129.811 211.311 129.811 215.16 136.477L342.997 357.898C346.846 364.564 342.035 372.898 334.337 372.898H78.6628C70.9648 372.898 66.1535 364.564 70.0025 357.898L197.84 136.477Z" fill="#2EB370"/>
<path d="M197.84 207.545C201.689 200.879 211.311 200.879 215.16 207.545L376.674 487.295C380.523 493.962 375.712 502.295 368.014 502.295H44.9862C37.2882 502.295 32.477 493.962 36.326 487.295L197.84 207.545Z" fill="#2EB370"/>
<rect x="104" y="553" width="85" height="85" rx="10" fill="#FF5659"/>
<rect x="99" y="571" width="95" height="19" rx="9.5" fill="#EEBDFF"/>
<rect x="145" y="547" width="95" height="19" rx="9.5" transform="rotate(90 145 547)" fill="#EEBDFF"/>
</svg>
