<svg width="29" height="50" viewBox="0 0 29 50" fill="none" xmlns="http://www.w3.org/2000/svg">
<circle cx="14.1827" cy="13.2212" r="13.2212" fill="#C3734C"/>
<circle cx="4.84647" cy="27.9234" r="4.84647" fill="#C3734C"/>
<circle cx="24.0772" cy="27.9234" r="4.84647" fill="#C3734C"/>
<circle cx="6.00962" cy="43.9904" r="6.00962" fill="#C3734C"/>
<circle cx="22.8365" cy="43.9904" r="6.00962" fill="#C3734C"/>
<path d="M8.38045 25.2363C8.538 24.2685 9.37393 23.5577 10.3545 23.5577H18.4914C19.472 23.5577 20.3079 24.2685 20.4655 25.2363L23.1797 41.9094C23.3778 43.1262 22.4385 44.2308 21.2057 44.2308H7.64024C6.40742 44.2308 5.46814 43.1262 5.66622 41.9094L8.38045 25.2363Z" fill="#C3734C"/>
<circle cx="7.45179" cy="12.7404" r="2.16346" fill="#303030"/>
<circle cx="20.9135" cy="12.7404" r="2.16346" fill="#303030"/>
<circle cx="14.1826" cy="26.6827" r="1.20192" fill="#303030"/>
<circle cx="14.1826" cy="31.0097" r="1.20192" fill="#303030"/>
<circle cx="14.1826" cy="35.3366" r="1.20192" fill="#303030"/>
<path d="M17.3077 16.3461C17.3077 17.9393 15.9086 19.2307 14.1827 19.2307C12.4568 19.2307 11.0577 17.9393 11.0577 16.3461" stroke="#303030" stroke-width="2" stroke-linecap="round"/>
</svg>
